<svg xmlns="http://www.w3.org/2000/svg" xmlns:xlink="http://www.w3.org/1999/xlink" version="1.1" x="0px" y="0px" viewBox="0 0 100 125" style="enable-background:new 0 0 100 100;" xml:space="preserve"><path d="M86.511,8.899c-7.262-3.652-36.321-3.652-36.321-3.652s-28.966,0-36.207,3.652c0,0-2.069,38.917,0,55.945  c1.241,10.19,13.976,19.076,23.99,24.569c2.772,1.521,5.338,2.783,7.397,3.734c2.928,1.355,4.821,2.1,4.821,2.1  s0.093-0.031,0.259-0.103c0.952-0.383,4.448-1.831,8.928-4.107C69.67,85.782,85.135,76.11,86.511,64.844  C88.58,47.816,86.511,8.899,86.511,8.899z M30.163,60.334c0,0-0.424,9.621-1.283,14.317c-0.279,1.572,0.052,3.135,0.621,4.531  c-5.948-4.438-11.048-9.89-11.762-15.848c-0.248-2.059-0.434-4.469-0.559-7.107c0.621,0.735,1.5,1.386,2.731,1.759  c0,0-1.283-5.555,0.848-5.131c0,0,2.783-0.641,3.848-2.565C24.608,50.289,30.804,52.43,30.163,60.334z M60.349,85.813  c0-0.005,0-0.011,0.001-0.016c0.025-0.713-0.146-1.415-0.45-2.06c-0.521-1.108-1.636-3.36-2.508-4.334  c-0.269-0.3-0.443-0.674-0.429-1.077c0.04-1.212,0.473-3.802,3.118-6.446c0,0,7.055-5.99,6.414-9.197c0,0,3.207-0.641,4.055,0.217  c0,0,3.424-0.424,4.924,0c1.49,0.424,4.697,2.783,5.555,2.348c0,0,0.538,0.238,1.21,0.414  C79.601,74.103,68.708,81.344,60.349,85.813z M83.232,57.892c-0.579-0.466-1.355-0.766-2.421-0.766c-2.99,0-2.99,0.435-5.338,0.435  c-2.359,0-4.49-1.076-4.49-1.076s4.369-5.562,3.528-9.596c-0.064-0.309-0.068-0.624,0.029-0.925  c0.318-0.983,1.175-3.191,2.701-4.108c0.47-0.282,0.82-0.723,0.878-1.269c0.218-2.054,0.877-6.151,1.833-6.748  c0,0,0.757-1.867,0.434-2.566c-0.387-0.839-0.752-2.332-3-1.5c-0.523,0.194-3.433,2.473-3.938,3.344  c-0.619,1.068-1.4,2.594-1.4,3.494c0,0-0.316,1.081-0.049,2.823c0.031,0.204-3.158,8.721-5.082,9.146c0,0-3.207-5.772-5.555-6.414  c0,0-2.772-0.207-3.414-0.848c0,0,2.131-1.707,4.49-1.076c0,0,0.207-4.479,1.272-4.479c0,0-3.197-0.217-4.697,0.424  c0,0-4.49-1.283-0.641-4.49c0,0,1.283,0.641,2.141,0.641c0,0,0.848,1.283,0.848,2.141c0,0,1.076,0,1.076-0.435l0.424,0.435  c0,0,1.283-1.717,1.283-2.566c0,0,2.565-3.207,2.245-4.593c0,0-2.359-1.717-5.348-1.717c0,0-0.848-2.555-4.272-3.197  c0,0-3.848-3-4.914-3l1.066,1.076c0,0-7.8-2.462-9.29-0.538c0,0,3.207,0.641,3.207,1.707c0,0-5.131-1.283-6.414,0.859  c0,0,1.707-0.424,2.131,0c0,0-6.197,2.565-6.621,4.055c0,0,1.066-0.424,1.5,0c0,0-1.717,1.5-1.717,2.141c0,0,1.076-0.424,1.076,0  c0,0-3.207,3.631-2.783,5.131c0,0,0.641-1.076,2.141-1.076c0,0-1.076,3.424-2.783,4.49c0,0,1.066,0,1.707-0.641  c0,0-1.283,4.272-4.697,5.131c0,0,0.859,0.424,1.924,0.424c0,0,1.924,0.859,1.924,1.924c0,0,2.348-0.848,2.99-0.424  c0,0,0.859,5.555,2.783,5.555c0,0,1.49,4.914,2.99,5.555c0,0,0.424,3.631,1.066,4.272c0,0,0.424,8.555-1.066,10.045  c0,0-6.114,6.507-6.6,11.369c-0.031,0.352-0.341,0.59-0.693,0.548c-0.662-0.093-1.624-0.341-1.903-1.014  c0,0-2.555-3.631-1.707-8.338c0,0,1.051-6.308,0.775-10.197c-0.05-0.709-0.092-1.417-0.11-2.128  c-0.058-2.287-0.859-7.949-7.068-10.972c0,0-2.783-3.197-5.99-2.131c-1.241,0.414-2.131,1.366-2.752,2.39  c-0.228-16.169,0.797-35.452,0.797-35.452c6.486-3.269,32.462-3.269,32.462-3.269s26.048,0,32.555,3.269  C82.756,13.172,84.246,41.072,83.232,57.892z"/><text x="0" y="115" fill="#000000" font-size="5px" font-weight="bold" font-family="'Helvetica Neue', Helvetica, Arial-Unicode, Arial, Sans-serif">Created by Whitney Rosenberg</text><text x="0" y="120" fill="#000000" font-size="5px" font-weight="bold" font-family="'Helvetica Neue', Helvetica, Arial-Unicode, Arial, Sans-serif">from the Noun Project</text></svg>