<svg enable-background="new 0 0 100 100" viewBox="0 0 100 125" xmlns="http://www.w3.org/2000/svg"><path d="m86.511 8.899c-7.262-3.652-36.321-3.652-36.321-3.652s-28.966 0-36.207 3.652c0 0-2.069 38.917 0 55.945 1.241 10.19 13.976 19.076 23.99 24.569 2.772 1.521 5.338 2.783 7.397 3.734 2.928 1.355 4.821 2.1 4.821 2.1s.093-.031.259-.103c.952-.383 4.448-1.831 8.928-4.107 10.292-5.255 25.757-14.927 27.133-26.193 2.069-17.028 0-55.945 0-55.945zm-56.348 51.435s-.424 9.621-1.283 14.317c-.279 1.572.052 3.135.621 4.531-5.948-4.438-11.048-9.89-11.762-15.848-.248-2.059-.434-4.469-.559-7.107.621.735 1.5 1.386 2.731 1.759 0 0-1.283-5.555.848-5.131 0 0 2.783-.641 3.848-2.565.001-.001 6.197 2.14 5.556 10.044zm30.186 25.479c0-.005 0-.011.001-.016.025-.713-.146-1.415-.45-2.06-.521-1.108-1.636-3.36-2.508-4.334-.269-.3-.443-.674-.429-1.077.04-1.212.473-3.802 3.118-6.446 0 0 7.055-5.99 6.414-9.197 0 0 3.207-.641 4.055.217 0 0 3.424-.424 4.924 0 1.49.424 4.697 2.783 5.555 2.348 0 0 .538.238 1.21.414-2.638 8.441-13.531 15.682-21.89 20.151zm22.883-27.921c-.579-.466-1.355-.766-2.421-.766-2.99 0-2.99.435-5.338.435-2.359 0-4.49-1.076-4.49-1.076s4.369-5.562 3.528-9.596c-.064-.309-.068-.624.029-.925.318-.983 1.175-3.191 2.701-4.108.47-.282.82-.723.878-1.269.218-2.054.877-6.151 1.833-6.748 0 0 .757-1.867.434-2.566-.387-.839-.752-2.332-3-1.5-.523.194-3.433 2.473-3.938 3.344-.619 1.068-1.4 2.594-1.4 3.494 0 0-.316 1.081-.049 2.823.031.204-3.158 8.721-5.082 9.146 0 0-3.207-5.772-5.555-6.414 0 0-2.772-.207-3.414-.848 0 0 2.131-1.707 4.49-1.076 0 0 .207-4.479 1.272-4.479 0 0-3.197-.217-4.697.424 0 0-4.49-1.283-.641-4.49 0 0 1.283.641 2.141.641 0 0 .848 1.283.848 2.141 0 0 1.076 0 1.076-.435l.424.435s1.283-1.717 1.283-2.566c0 0 2.565-3.207 2.245-4.593 0 0-2.359-1.717-5.348-1.717 0 0-.848-2.555-4.272-3.197 0 0-3.848-3-4.914-3l1.066 1.076s-7.8-2.462-9.29-.538c0 0 3.207.641 3.207 1.707 0 0-5.131-1.283-6.414.859 0 0 1.707-.424 2.131 0 0 0-6.197 2.565-6.621 4.055 0 0 1.066-.424 1.5 0 0 0-1.717 1.5-1.717 2.141 0 0 1.076-.424 1.076 0 0 0-3.207 3.631-2.783 5.131 0 0 .641-1.076 2.141-1.076 0 0-1.076 3.424-2.783 4.49 0 0 1.066 0 1.707-.641 0 0-1.283 4.272-4.697 5.131 0 0 .859.424 1.924.424 0 0 1.924.859 1.924 1.924 0 0 2.348-.848 2.99-.424 0 0 .859 5.555 2.783 5.555 0 0 1.49 4.914 2.99 5.555 0 0 .424 3.631 1.066 4.272 0 0 .424 8.555-1.066 10.045 0 0-6.114 6.507-6.6 11.369-.031.352-.341.59-.693.548-.662-.093-1.624-.341-1.903-1.014 0 0-2.555-3.631-1.707-8.338 0 0 1.051-6.308.775-10.197-.05-.709-.092-1.417-.11-2.128-.058-2.287-.859-7.949-7.068-10.972 0 0-2.783-3.197-5.99-2.131-1.241.414-2.131 1.366-2.752 2.39-.228-16.169.797-35.452.797-35.452 6.486-3.269 32.462-3.269 32.462-3.269s26.048 0 32.555 3.269c.001.005 1.491 27.905.477 44.725z"/><g font-family="'Helvetica Neue', Helvetica, Arial-Unicode, Arial, Sans-serif" font-size="5" font-weight="bold"></g></svg>