<svg xmlns="http://www.w3.org/2000/svg" xmlns:xlink="http://www.w3.org/1999/xlink" version="1.1" x="0px" y="0px" viewBox="0 0 100 125" style="enable-background:new 0 0 100 100;" xml:space="preserve"><path d="M86.508,8.901c-7.26-3.654-36.315-3.654-36.315-3.654s-28.967,0-36.207,3.654c0,0-2.074,38.917,0,55.941  c0.201,1.659,0.703,3.279,1.459,4.858c6.932,14.648,34.749,25.548,34.749,25.548s28.633-11.188,35.11-26.123  c0.616-1.398,1.024-2.824,1.204-4.283C88.583,47.818,86.508,8.901,86.508,8.901z M20.317,62.486  c0.515-0.522,3.098-1.552,3.098-1.552h-2.583c0,0,0-2.59,1.031-2.59c0,0-2.068-1.03-4.135,0c0,0,0-0.515,0.522-1.03l-1.037-0.341  c-0.054-1.024-0.1-2.081-0.141-3.172c1.378,0.181,3.901,0.549,4.276,0.923c0.515,0.522-0.515-1.546-0.515-1.546  s3.62,2.068,5.173,2.068c0,0-0.522,0-0.522-1.037h1.037l4.135,5.172v0.515c0,0-4.135,4.142-5.173,4.142c-1.03,0-3.62,0-3.62,0  S19.795,63.001,20.317,62.486z M64.788,80.065c-0.515,0,0.515-2.068,0.515-2.068c-0.515-0.515-4.651,0-4.651,0  c0-0.515,0.515-1.552,0.515-1.552c-1.552-0.515-4.135,2.074-4.135,2.074c-1.552,0.515-2.068,0-4.657-0.522  c-2.583-0.515-4.135-1.552-7.24-1.552c-3.098,0-6.203,1.037-6.203,1.037s-7.755-1.037-8.277-1.552  c-0.515-0.515-0.515-1.031-0.515-1.031c1.037-0.522,2.068-0.522,2.068-0.522c-0.515-0.515-3.105-1.552-3.105-1.552  c0-1.03,3.105-3.098,3.105-3.098c-3.105-0.522-6.725,1.552-6.725,1.552l-1.03-0.522l-0.515-1.552  c0.515-1.03,9.308-1.546,9.308-1.546s-2.068-0.522-1.552-1.037c0.515-0.515,4.135,0,4.135,0l-0.515-1.037  c0.515-1.03,3.62-1.03,3.62-1.03c1.552,5.172,19.653,8.793,24.819,8.793c5.173,0,4.142,1.552,4.657,3.098  C68.923,77.997,64.788,80.065,64.788,80.065z M82.755,63.336c-0.468,3.848-2.77,7.488-5.949,10.78  c-0.368-0.816-0.642-1.653-0.642-2.322c0-2.068,1.166-4.209,2.068-6.21c2.769-6.148,2.094-10.506-2.844-16.173  C71.279,44.7,59.62,44.989,56,43.436c-2.757-1.178-5.431-4.738-6.301-6.331c-0.355-0.649-0.448-1.425-0.161-2.101  c0.254-0.616,0.736-1.091,1.258-1.539c2.114-1.787,6.564-2.355,7.909-2.489c0.261-0.027,0.502-0.141,0.683-0.328l0.897-0.89  c0.234-0.241,0.368-0.555,0.368-0.89v-1.365c0-0.435-0.234-0.83-0.616-1.037l-4.671-2.549c-0.248-0.134-0.402-0.395-0.402-0.676  v-0.094c0-0.301-0.154-0.582-0.408-0.743l-5.28-3.359c0,0-0.562-1.506-0.127-2.804c0.054-0.154-0.067-0.321-0.234-0.335  c-0.87-0.047-3.071,0.007-3.68,1.746c-0.08,0.221-0.288,0.375-0.522,0.402c-1.131,0.12-4.222,0.515-5.052,1.171  c-0.214,0.167-0.502,0.201-0.756,0.1c-0.964-0.361-2.964-0.917-4.109,0.234c-1.445,1.445-1.994,1.994-1.225,4.155  c0.114,0.315,0.06,0.676-0.141,0.95c-1.445,1.967-6.511,8.806-8.324,12.587c-0.428,0.89-0.629,1.874-0.616,2.864  c0.027,1.653-0.167,5.045-2.108,5.822c0,0-1.586,1.184-5.447,2.175C16.737,32.053,17.74,13.17,17.74,13.17  c6.484-3.265,32.46-3.265,32.46-3.265s26.05,0,32.554,3.265C82.755,13.17,84.621,48.066,82.755,63.336z"/><text x="0" y="115" fill="#000000" font-size="5px" font-weight="bold" font-family="'Helvetica Neue', Helvetica, Arial-Unicode, Arial, Sans-serif">Created by Whitney Rosenberg</text><text x="0" y="120" fill="#000000" font-size="5px" font-weight="bold" font-family="'Helvetica Neue', Helvetica, Arial-Unicode, Arial, Sans-serif">from the Noun Project</text></svg>