<svg xmlns="http://www.w3.org/2000/svg" xmlns:xlink="http://www.w3.org/1999/xlink" version="1.1" x="0px" y="0px" viewBox="0 0 100 125" style="enable-background:new 0 0 100 100;" xml:space="preserve"><path d="M86.508,8.901c-7.26-3.654-36.321-3.654-36.321-3.654s-28.961,0-36.201,3.654c0,0-2.074,38.917,0,55.941  c0.248,2.034,0.95,4.008,2.001,5.922c7.729,14.112,34.2,24.484,34.2,24.484s12.292-4.804,22.597-12.319  c6.892-5.025,12.894-11.262,13.724-18.087C88.583,47.818,86.508,8.901,86.508,8.901z M51.191,67.732l-1.552,1.546  c-1.92-0.241-2.389,0.636-2.335,1.646l-1.526,0.569l-1.338-0.669h-2.007l-0.027-0.027c-0.033-0.602-1.031-3.58-1.031-3.58  l6.21-3.346c0.314-0.167,0.689-0.154,0.984,0.047c0.89,0.602,2.75,1.874,3.138,2.262C52.221,66.695,51.191,67.732,51.191,67.732z   M75.969,74.966c-0.02,0.02-0.04,0.033-0.06,0.047c-2.021,1.954-4.329,3.781-6.718,5.433l-1.332-0.923h-6.022  c0,0-1.338-2.007-2.677-3.346c-0.676-0.676-2.723-2.382-4.584-3.908c-0.04-1.071-1.318-2.991-1.318-2.991v-1.546  c0,0,1.546-3.62,3.613-4.651c2.068-1.03,3.098,4.135,3.098,4.135l0.515-1.037c1.037,2.068,3.105,3.613,3.62,4.135  c0.515,0.515,0,2.061,0,2.061s0.515-0.515,1.03-1.031c0.515-0.515,3.613,4.135,3.613,4.135v-2.583  c1.151,1.144,2.007,2.57,2.382,3.239c-0.114-0.823,0.201-2.723,0.201-2.723s1.037,1.03,2.068,1.546  c0.81,0.408,1.92,0.181,2.375,0.06c-0.616-0.094-1.686-2.181-0.308-2.643c1.017-0.335,1.593,0.435,2.155,0.856  c-0.522,0.589-1.084,1.171-1.673,1.74C75.956,74.966,75.963,74.966,75.969,74.966z M82.755,63.336  c-0.328,2.71-1.566,5.32-3.386,7.769c-2.161-2.215-8.19-8.538-6.484-8.538c2.068,0,4.135-1.037,4.135-1.037s-2.583-0.515-1.037-1.03  c0.087-0.027,0.167-0.054,0.241-0.074c0.616-0.194,0.763-1.01,0.234-1.365c-2.268-1.539-7.862-3.593-8.204-3.72  c6.698,1.024,8.244-0.522,8.766-1.037c0.515-0.515-0.522-1.037-0.522-1.037c-6.712,1.552-11.362-1.546-11.362-1.546  c3.098-0.515,4.651-2.068,4.651-2.068c-6.196,1.03-12.399-4.135-12.399-4.135c5.681,0,9.816-2.583,9.816-2.583  c-3.098,0-4.651-1.031-4.651-1.031c5.681-0.515,12.399-5.166,12.399-5.166c-1.74,0.629-3.098,0-3.098,0  c3.098-1.031,3.613-4.129,3.613-4.129c-0.917,1.412-6.196,3.098-6.196,3.098c-2.583,0-1.552-1.037-1.552-1.037  c10.847-3.098,9.301-7.227,9.301-7.227c-0.522,1.546-1.037,1.03-1.037,1.03c0.515-1.546,0-2.583,0-2.583  c-0.656,1.238-15.484,5.454-19.499,5.454c-2.65,0-12.011,4.363-12.011,4.363l-3.098-2.068c0-12.914-12.393-5.681-12.393-5.681  c-2.583,0-7.233,1.546-8.264,2.583c-1.037,1.03,0.254,2.322,0.254,2.322c3.098-3.098,9.301,1.552,9.301,1.552  c-7.963,17.799,6.584,23.28,9.368,24.149c0.248,0.074,0.415,0.301,0.422,0.562c0.06,1.961,1.827,5.507,1.827,5.507l-2.576,2.061  h-1.552c-3.158-1.974-4.202-0.629-4.523,0.114h-1.512l-2.007,1.338c0,0,0.669,0.669-1.338,0s-4.015,0-4.015,0l-4.336,1.358  c-1.218-1.974-2.034-4.042-2.289-6.17c-1.867-15.27,0-50.166,0-50.166c6.484-3.265,32.46-3.265,32.46-3.265s26.05,0,32.554,3.265  C82.755,13.17,84.615,48.066,82.755,63.336z"/><text x="0" y="115" fill="#000000" font-size="5px" font-weight="bold" font-family="'Helvetica Neue', Helvetica, Arial-Unicode, Arial, Sans-serif">Created by Whitney Rosenberg</text><text x="0" y="120" fill="#000000" font-size="5px" font-weight="bold" font-family="'Helvetica Neue', Helvetica, Arial-Unicode, Arial, Sans-serif">from the Noun Project</text></svg>