<svg xmlns="http://www.w3.org/2000/svg" xmlns:xlink="http://www.w3.org/1999/xlink" version="1.1" x="0px" y="0px" viewBox="0 0 100 125" style="enable-background:new 0 0 100 100;" xml:space="preserve"><path d="M86.511,8.899c-7.262-3.652-36.321-3.652-36.321-3.652s-28.966,0-36.207,3.652c0,0-2.069,38.917,0,55.945  c0.838,6.859,6.869,13.128,13.79,18.166c10.241,7.469,22.417,12.238,22.417,12.238s16.138-6.3,26.928-15.766  c4.924-4.314,8.741-9.3,9.393-14.638C88.58,47.816,86.511,8.899,86.511,8.899z M82.756,63.334c-0.393,3.238-2.079,6.321-4.5,9.176  c0.093-4.034-0.683-8.7-2.648-14.069c0,0-4.053-10.894-5.608-14.004c-2-4-4.844-8.072-4.844-9.706c0-1.635,1.043-5.19,1.752-6.186  c0.495-0.696,1.935-2.576,1.386-3.124c-0.548-0.548-3.01,0.941-3.01,0.941c-0.093,0.093-8.7,4.355-4.355,13.055  c4.355,8.69,6.528,13.583,5.979,14.131c0,0-13.045-5.259-19.024,1.259c-4.417,4.821-3.417,7.872-3.417,8.959  s1.783,21.314,22.441,8.259c0,0-2.172,13.055-15.217,13.055S38.646,72.572,38.646,72.572s0.342-11.206,6.065-18.938  C53,42.436,55,37.436,55.035,35.147C55.136,28.631,54,26.436,54,26.436s-2.309-9.313-12.365-6.861c0,0-7.614-1.086-11.421,5.979  c0,0-7.603,5.431-3.807,9.238c0,0-0.269,1.355,0.279,1.903c0.538,0.538-0.548-1.634,0.538-1.634c0,0,1.635,0.548,2.721,0  c1.086-0.538-1.635,1.086-1.086,2.172c0,0-2.462,0.083-3.497,1.117c-0.517,0.517,0.238,2.69-0.859,3.238  c-1.086,0.538-2.71,2.721-2.172,3.807c0,0,1.179-1.914,2.172-2.317c0.155-0.062,0.321,0.052,0.321,0.217  c0.01,0.559,0.217,1.81,1.852,2.638c-0.093-0.103-1.097-1.221-0.228-2.803c0.434-0.776,0.579-1.686,0.497-2.576  c-0.021-0.217-0.031-0.435-0.031-0.652c0-1.086,1.945-1.572,1.945-1.572s3.807,5.431,13.045-4.893c0,0,2.172-0.548,3.259-2.183  c0,0,1.634,7.076-7.603,17.4c0,0-11.71,12.641-10.779,28.366c-4.717-3.993-8.431-8.669-9.041-13.686  c-1.862-15.269,0-50.162,0-50.162c6.486-3.269,32.462-3.269,32.462-3.269s26.048,0,32.555,3.269  C82.756,13.172,84.618,48.065,82.756,63.334z M63.918,62.516c0,0-8.7,5.979-10.324,2.172c0,0-0.548-2.721,3.259-3.259  C60.66,60.882,63.918,62.516,63.918,62.516z"/><text x="0" y="115" fill="#000000" font-size="5px" font-weight="bold" font-family="'Helvetica Neue', Helvetica, Arial-Unicode, Arial, Sans-serif">Created by Whitney Rosenberg</text><text x="0" y="120" fill="#000000" font-size="5px" font-weight="bold" font-family="'Helvetica Neue', Helvetica, Arial-Unicode, Arial, Sans-serif">from the Noun Project</text></svg>