<svg enable-background="new 0 0 100 100" viewBox="0 0 100 125" xmlns="http://www.w3.org/2000/svg"><path d="m70.735 60.328-20.111-28.718c-.245-.36-.573-.638-.965-.834l-23.466-11.733c-2.045-1.015-4.304.9-3.649 3.076l9.475 31.124c.147.475.164.998.016 1.473l-1.571 5.515c-16.331 2.323-25.217 8.263-25.217 14.203 0 8.133 20.995-.491 45.818 4.909 18.818 4.091 44.182 3.224 44.182-4.909 0-5.859-8.558-11.733-24.512-14.106zm-24.578-12.076c-1.587 0-7.773-4.615-8.165-4.893.393.18 6.578 3.256 8.165 3.256 1.636 0 6.545-3.273 6.545-3.273s-4.909 4.91-6.545 4.91z"/><g font-family="'Helvetica Neue', Helvetica, Arial-Unicode, Arial, Sans-serif" font-size="5" font-weight="bold"><text y="115">Created by Whitney Rosenberg</text><text y="120">from the Noun Project</text></g></svg>